<?xml version="1.0" encoding="utf-8"?>
<!-- Generator: Adobe Illustrator 26.3.1, SVG Export Plug-In . SVG Version: 6.00 Build 0)  -->
<svg version="1.1" xmlns="http://www.w3.org/2000/svg" xmlns:xlink="http://www.w3.org/1999/xlink" x="0px" y="0px"
	 viewBox="0 0 2500 2500" style="enable-background:new 0 0 2500 2500;" xml:space="preserve">
<style type="text/css">
	.st0{fill:#FFFFFF;}
	.st1{fill:#FFD6BB;}
	.st2{fill:#FFE8DC;}
	.st3{opacity:0.45;}
	.st4{fill:#3BD4DB;}
	.st5{fill:#DBEFE3;}
	.st6{fill:#004884;}
	.st7{display:none;opacity:0.45;}
	.st8{display:inline;}
	.st9{fill:#A9A9A9;}
	.st10{fill:#01335E;}
	.st11{fill:#FC9858;}
	.st12{fill:#F93401;}
	.st13{fill:#FFBF25;}
	.st14{fill:#FEC025;}
	.st15{fill:#FFBF27;}
	.st16{fill:#004A83;}
	.st17{fill:#FAFDFF;}
	.st18{fill:#018793;}
	.st19{fill:#00A7B7;}
	.st20{fill:none;stroke:#FFFFFF;stroke-width:7;stroke-linecap:round;stroke-linejoin:round;stroke-miterlimit:10;}
	.st21{fill:#C17449;}
	.st22{fill:#FFBE2A;}
	.st23{fill:none;stroke:#000000;stroke-width:2;stroke-linecap:round;stroke-linejoin:round;stroke-miterlimit:10;}
</style>
<g id="Layer_2">
	<rect class="st0" width="2500" height="2500"/>
</g>
<g id="Layer_13">
	<rect y="618.61" class="st1" width="2500" height="1198.89"/>
</g>
<g id="Layer_14">
	<g>
		<path class="st2" d="M2500,1542.26h-227.38l-207.83-263.97h392.69l42.52,53.97v-9.67l-34.88-44.3l34.88,0.3v-6.42l-39.61,0.12
			l-178.24-226.39H2500v-6h-222.57l-149.21-189.51h308.35L2500,933v-12.25l-55.79-70.37H2500v-6h-60.51l-94.91-120.55H2500v-6
			h-160.15l-78.13-99.23h-7.64l78.13,99.23h-308.35l-78.13-99.23h-7.64l78.13,99.23h-392.69l-78.13-99.23l-7.49,0.19l77.98,99.04
			h-346.97l-78.13-99.23h-7.64l78.13,99.23H881.7l-78.13-99.23h-7.64l78.13,99.23H390.33l-78.13-99.23h-8.27l78.76,99.23H12.18
			L0,702.37v9.7l4.54,5.77H0v6h9.26l94.91,120.55H0v6h108.9l149.21,189.51H0v6.11l262.83-0.11l178.24,226.39H55.63L0,1202.04v9.28
			l47.99,60.96H0v6h52.72l207.83,263.97L0,1542.5v7l265.28-1.24l123.62,157.01L0,1704.75l0.01,2.02L0,1706.76v9.7l79.55,101.04h7.64
			L3.96,1711.79l389.66-0.52l83.63,106.22h7.64l-83.63-106.22H786.7l83.63,106.22h7.64l-83.63-106.22h370.52l83.63,106.22h7.64
			l-83.63-106.22h483.73l83.63,106.22h7.64l-83.63-106.22h379.6l83.38,106.22h7.75l-83.49-106.22h346.97l84.28,106.4l6.83-0.17
			l-83.47-106.22H2500v-6h-99.03l-123.62-157.01H2500V1542.26z M2264.99,1542.26h-346.97l-207.83-263.97h346.97L2264.99,1542.26z
			 M1527.22,1045.89h346.97l178.24,226.39h-346.97L1527.22,1045.89z M1697.83,1272.28h-379.6l-178.24-226.39h379.6L1697.83,1272.28z
			 M1522.5,1039.89l-149.21-189.51h346.97l149.21,189.51H1522.5z M1514.86,1039.89h-379.6L986.05,850.38h379.6L1514.86,1039.89z
			 M1127.62,1039.89H643.89L494.69,850.38h483.73L1127.62,1039.89z M1132.35,1045.89l178.24,226.39H826.86l-178.24-226.39H1132.35z
			 M1031.78,1542.26H661.26l-207.83-263.97h370.52L1031.78,1542.26z M831.58,1278.28h483.73l207.83,263.97h-483.73L831.58,1278.28z
			 M1322.95,1278.28h379.6l207.83,263.97h-379.6L1322.95,1278.28z M2452.76,1272.28h-392.69l-178.24-226.39h392.69L2452.76,1272.28z
			 M2269.79,1039.89H1877.1L1727.9,850.38h392.69L2269.79,1039.89z M2336.94,723.84l94.91,120.55H2123.5l-94.91-120.55H2336.94z
			 M2020.95,723.84l94.91,120.55h-392.69l-94.91-120.55H2020.95z M1620.62,723.84l94.91,120.55h-346.97l-94.91-120.55H1620.62z
			 M1266.02,723.84l94.91,120.55h-379.6l-94.91-120.55H1266.02z M878.78,723.84l94.91,120.55H489.96l-94.91-120.55H878.78z
			 M16.9,723.84h370.52l94.91,120.55H111.81L16.9,723.84z M116.53,850.38h370.52l149.21,189.51H265.74L116.53,850.38z
			 M270.46,1045.89h370.52l178.24,226.39H448.71L270.46,1045.89z M60.35,1278.28h385.44l207.83,263.97H268.19L60.35,1278.28z
			 M396.53,1705.27l-123.62-157.01h385.44l123.62,157.01H396.53z M789.61,1705.27l-123.62-157.01h370.52l123.62,157.01H789.61z
			 M1167.76,1705.27l-123.62-157.01h483.73l123.62,157.01H1167.76z M1659.13,1705.27l-123.62-157.01h379.6l123.62,157.01H1659.13z
			 M2393.33,1705.27h-346.97l-123.62-157.01h346.97L2393.33,1705.27z"/>
	</g>
</g>
<g id="Layer_10" class="st3">
	<path d="M2280.12,1424.94c-9.83-4.77-47.44-20.72-47.44-20.72l91.92-20.84c0,0,137.44,2.12,135.03,27.88
		c-2.41,25.75-153.27,29.31-153.27,29.31L2280.12,1424.94z"/>
	<path d="M666.93,1668.91c49.74,2.59,210.53-4.6,213.75-40.01c3.22-35.41-173.95-21.73-173.95-21.73L666.93,1668.91z"/>
	<path d="M74.98,1545.26l86.92-43.24c0,0,37.02-10.38,84.51,0.33c47.48,10.72,147.21-0.94,187.89-8.8
		c40.68-7.85,76.09-16.84,76.09-16.84l-66.8-43.88c0,0-43.46,1.05-79.68,0c-36.22-1.05-103.82,11.21-103.82,11.21l-168.21,44.97
		L74.98,1545.26z"/>
	<path d="M1342.55,1148.69c0,0-446.58-166.8-440.19-183.7c6.39-16.9,357.29,144.69,373.39,139.95c16.1-4.74,53.92,0.31,54.73,6.64
		s-12.07,12.13-12.07,12.13l82.02,24.98H1342.55z"/>
	<path d="M1392.75,1120.98c30-6.62,108.35-6.55,112.38-19.3c4.02-12.75-54.13-13.17-70.21-15.54s-37.64,21.32-37.64,21.32
		L1392.75,1120.98z"/>
	<polygon points="1476.15,1147.39 1535.71,1148.69 1582.08,1172.05 1563.31,1202.41 	"/>
</g>
<g id="Layer_5">
	<polygon class="st4" points="345.95,1147.39 497.65,1500.72 2279.64,1467.19 1993.72,1147.39 	"/>
	<polygon class="st5" points="345.95,1147.39 375.35,1215.87 1991.23,1215.87 2256.85,1467.62 2279.64,1467.19 1993.72,1147.39 	"/>
	<path class="st4" d="M1034.31,1215.87c36.22-10.25,47.48-23.93,66.8-24.73s28.17,11.86,43.46,12.37
		c15.29,0.51,29.78-13.25,45.07-12.4s53.12,19.35,67.6,16.94c14.49-2.41,38.63,0.21,61.17,4.02c22.53,3.81,62.97,11.27,62.97,11.27
		l-363.97,10.46L1034.31,1215.87z"/>
	<path class="st4" d="M1509.15,1223.33c20.12-12.88,44.77-22.95,54.16-26.67c9.39-3.72,65.76,31.49,70.58,33.1
		C1638.72,1231.38,1509.15,1223.33,1509.15,1223.33z"/>
	<path class="st4" d="M715.6,1117.7c-5.03,0.35-12.67,2.01-12.87,7.65c-0.2,5.63,4.63,10.06,13.68,10.06s13.48-6.64,13.48-8.85
		C729.89,1124.34,727.27,1116.89,715.6,1117.7z"/>
	<path class="st4" d="M883.41,1114.88c-5.03,0.35-12.67,2.01-12.87,7.65c-0.2,5.63,4.63,10.06,13.68,10.06s13.48-6.64,13.48-8.85
		C897.69,1121.52,895.07,1114.08,883.41,1114.88z"/>
	<path class="st6" d="M973.55,1002.81c-8.45-13.08-29.58-30.15-53.12-10.15c-23.54,20-33.41,62.86-36.32,76.74
		c-2.91,13.88-9.25,45.12-7.89,48.44s9.81,5.73,14.03-1.21c4.23-6.94,12.07-54.27,19.32-71.98c7.24-17.71,19.32-49.9,36.22-42.65
		c16.9,7.24,12.88,57.95,13.68,81.29c0.8,23.34-2.41,46.78-2.41,46.78H809.77c0,0,8.85-83,0.8-110.36
		c-8.05-27.36-24.14-38.63-40.24-36.21c-16.1,2.41-37.02,16.23-48.29,43.12c-11.27,26.89-13.88,94.3-13.88,94.3
		c4.23,4.83,12.13,1.26,14.69,0c2.55-1.26,2.41-46.08,8.25-63.18c5.83-17.1,21.73-49.5,32.19-53.12c10.46-3.62,15.9-1.81,19.92,5.43
		c4.02,7.24,8.85,12.07,9.26,24.95c0.4,12.88,0.4,80.28-1.21,97.58c-1.61,17.3-11.47,140.64-11.47,140.64l14.89,3.42l2.62-25.55
		l150.3-1.81v22.94l16.3-3.02c0,0,12.07-152.71,14.49-181.69C980.79,1058.55,982,1015.89,973.55,1002.81z M945.78,1240.23H800.31
		l3.35-43.57H948.8L945.78,1240.23z M951.82,1186.51l-147.6-3.37l6.36-38.89h146.68L951.82,1186.51z"/>
</g>
<g id="Layer_11" class="st7">
	<path class="st8" d="M1618.23,1271.73c7.51,2.63,33.33,15.19,37.84,11.16s-5.86-11.16-5.86-11.16s13.08,2.04,16.23-2.62
		c3.16-4.66-5.86-13.99-5.86-13.99s22.54-1.7,23-5.09s-5.86-14.41-5.86-14.41s9.92,0,15.33-4.24c5.41-4.24-6.31-13.99-6.31-13.99
		s10.37,1.24,12.63-4.04c2.25-5.29-3.38-14.19-3.38-14.19s13.75,0,14.65-4.24c0.9-4.24-4.96-16.11-4.96-16.11s18.67,1.42,19.57-3.9
		c0.9-5.33-11.27-13.94-11.27-13.94l29.38-13.57h-46.68l-57.73,51.76L1618.23,1271.73z"/>
	<path class="st8" d="M1808.34,1427.29c7.24,10.93,93.86,47,93.86,47l73.97-1.39c0,0,40.41-40.27,38.6-67.36
		c-1.81-27.09-15.09-50.27-15.09-50.27l91.44-44.73l11.57-41.27l-21.1-23.61l-9.16,47.16c0,0-87.23,42.18-93.86,45.2
		c-6.64,3.02-57.08,15.09-57.08,15.09l-19.3,30.27l-32.38,23.63L1808.34,1427.29z"/>
	<path class="st8" d="M883.41,1114.88c0,0,71.97-21.45,96.75,2.76c24.78,24.2,30.21,46.58,29.01,64.65
		c-1.2,18.06-2.41,33.59-2.41,33.59h-26.59c0,0,6.61-37.54,0-54.88c-6.61-17.34-9.67-26.71-33.79-31.08c-24.12-4.37-59.13,0-59.13,0
		L883.41,1114.88z"/>
	<path class="st8" d="M718.93,1135.22c0,0,80.17,3.51,89.53,21.97c9.36,18.45,5.74,58.68,5.74,58.68h27.5c0,0,5.09-57.73-6.98-77.65
		c-12.07-19.92-68.81-24.55-85.11-26.46c-16.3-1.91-33.3,11.41-33.3,11.41L718.93,1135.22z"/>
</g>
<g id="Layer_6">
	<path d="M74.98,1404.22H49.22c0,0-9.66,24.72-8.05,39.82s20.12,41.67,20.12,41.67s-5.81,12.06-3.31,26.54
		c2.5,14.49,16.99,33,16.99,33s14.49-17.71,17.71-24.14c3.22-6.44,14.49-35.4,14.49-35.4L74.98,1404.22z"/>
	<path d="M536.36,1190.04c4.47-23.02,19.8-41.6,40.44-35.75c20.64,5.85,28.79,19.82,31.93,30.87c3.14,11.04,0.7,14.25,9.54,15.92
		c8.84,1.67,14.71-4.18,14.71-4.18s-5.55,15.8-17.28,21.64c-11.73,5.84-43.44-2.72-49.3-2.73
		C560.54,1215.8,536.36,1190.04,536.36,1190.04z"/>
	<path class="st9" d="M71.35,1393.15c-9.26,4.43-10.86,25.75-8.45,36.22c2.41,10.46,19.32,22.9,19.32,22.9l126.76-9.62l8.85-114.69
		c0,0-14.56,37.02-31.06,52.72c-16.5,15.69-40.1,13.28-54.99,12.47C116.9,1392.34,75.95,1390.95,71.35,1393.15z"/>
	<path class="st10" d="M428.29,1360.95c0,0-21.73,55.55-10.46,74.05c11.27,18.5,70.02,28.16,70.02,28.16l6.44-112.67L428.29,1360.95
		z"/>
	<path class="st11" d="M596.9,1460.55c14.49-0.6,28.37,6.64,35.01,14.49c6.64,7.85,19.3,22.8,19.3,22.8H596.9V1460.55z"/>
	<path class="st11" d="M514.28,1211.99c0,0,11.82-10.23,11.69-12.92c-0.13-2.69-5.76-22.35,14.93-23.52
		c18.3-1.04,11.55,26.14,11.55,26.14l5.32,6.33c0,0,9.36-13.65,12.46-14.99c7.96-3.46,15.85,6.64,16.46,14.31
		c0.61,7.67,0.99,33.29-2.25,35.15c-3.24,1.86-12.1-5.03-12.1-5.03s-6.1,4.24-11.83,7.13c-5.72,2.88-20.32,8.91-20.32,8.91
		L514.28,1211.99z"/>
	<path class="st0" d="M286.64,1225.94c-30.18,3.43-37.42,2.22-56.74,33.61c-19.32,31.39-24.14,123.14-30.18,147.28
		c-6.04,24.14-3.62,30.18-15.09,31.39c-11.47,1.21-65.79-2.2-74.24-3.21s-19.92-3.81-25.96,0c-6.04,3.81-7.24,34.43-3.62,44.17
		c3.62,9.74,13.28,21.35,16.3,22.84c3.02,1.49,121.93,4.41,138.83,3.2c16.9-1.21,42.25-10.01,45.87-37.6
		c3.62-27.59,12.96-110.49,12.96-110.49L286.64,1225.94z"/>
	<path class="st6" d="M535.93,1241.44c-15.6-28.99-15.09-40.05-48.89-44.77c-33.8-4.72-119.5,12.08-132.2,12.25
		c-12.7,0.17-83.86,3.07-92.93,20.52c-9.07,17.44-8.47,71.16,4.21,112.21c12.68,41.05,23.54,70.93,48.29,78.92
		c24.75,8,70.02,1.96,96.58-5.28c26.56-7.24,57.95-25.17,57.95-25.17s-9.05,69.49-4.83,77.51c4.23,8.02,19.32,26.73,62.78,27.34
		c43.46,0.6,85.11,2.88,85.11,2.88s3.62-33.06-4.23-40.91c-7.85-7.85-65.79-22.94-69.41-28.97c-3.62-6.04,8.45-97.18,7.85-115.89
		C545.59,1293.35,543.85,1256.16,535.93,1241.44z"/>
	<path class="st0" d="M570.81,1203.36c2.92-3.03,13.55,6.82,8.92,10.96C576.36,1217.34,567.96,1206.32,570.81,1203.36z"/>
</g>
<g id="Layer_9">
	<path class="st9" d="M575.37,1468.14c-13.81-11.2,51.51-32.99,94.97-36.62s122.56,12.24,117.72,23.54
		C768.74,1500.13,610.03,1496.24,575.37,1468.14z"/>
	<path class="st12" d="M522.66,1400.54c-5.63-12.47-11.67-41.31-8.85-42.18c2.82-0.87,8.85,4.76,8.85,4.76s-4.43-8.85,0-10.06
		c4.43-1.21,7.24,5.3,7.24,5.3s0.8-7.71,5.23-9.32c4.43-1.61,10.06,4.43,10.06,4.43s1.21-8.85,6.04-10.46s7.65,4.83,7.65,4.83
		s4.02-8.85,6.44-9.26c2.41-0.4,4.43,4.83,4.43,4.83s3.22-7.24,6.84-7.65c3.62-0.4,8.78,3.62,8.78,3.62s0.47-8.05,3.69-9.26
		c3.22-1.21,6.44,4.83,6.44,4.83s1.21-6.84,4.43-7.44c3.22-0.6,6.84,5.03,6.84,5.03s4.43-8.45,8.45-10.06s20.93,46.24,20.93,46.24
		L522.66,1400.54z"/>
	<polygon class="st13" points="623.4,1491.08 601.53,1422.2 590.66,1425.89 615.61,1491.08 	"/>
	<path class="st12" d="M574.61,1414.82l30.54-9.46c0,0,3.22,16.1-7.04,20.72C587.85,1430.72,574.61,1414.82,574.61,1414.82z"/>
	<path class="st14" d="M522.66,1400.54c-4.99-7.84,104.83-35.38,113.48-31.83c0.36,8.19-17,38.57-42.96,46.11
		C567.22,1422.37,527.59,1408.28,522.66,1400.54z"/>
	<path class="st0" d="M772.55,1312.01c0,0,12.07-2.01,13.08,0c1.01,2.01,2.21,12.27,0,12.68c-2.21,0.4-18.71,0-18.71,0
		L772.55,1312.01z"/>
	<path class="st0" d="M755.45,1326.7c-1.21,5.63-16.3,18.71-15.69,20.72c0.6,2.01,18.04-5.43,22.1-10.36
		c4.06-4.93,6.07-12.58,6.07-12.58L755.45,1326.7z"/>
	<path class="st15" d="M698.51,1327.5c-5.94-5-1.81-28.17,4.23-30.38c6.04-2.21,69.62,6.64,71.83,13.48
		c2.21,6.84-1.21,15.09-3.82,16.9C768.13,1329.31,706.15,1333.94,698.51,1327.5z"/>
	<path class="st0" d="M709.07,1324.58c3.32-5.73,17.81-9.56,20.22,2.92c-1.62,16.62-4.83,32.39-4.83,32.39l-19.32-1.54
		L709.07,1324.58z"/>
	<path class="st16" d="M791.16,1363.82c6.04,1.51,22.94,6.48,22.03,11.09s-8.45,4.91-8.45,7.92c0,3.02,5.13,10.26,3.32,15.39
		c-1.81,5.13-11.17,5.43-12.07,8.45c-0.91,3.02,4.53,9.75,3.62,13.17s-12.5,5.54-12.74,7.95c-0.24,2.41,2.42,6.94,1.39,11.47
		c-1.03,4.53-6.17,4.06-9.33,7.31c-3.16,3.25,4.14,8.85,1.36,15.02c-2.77,6.17-10.86,4.23-14.18,7.24
		c-3.32,3.02,8.15,9.66,6.04,15.39c-2.11,5.73-9.05,9.36-9.05,9.36l-19.32-1.81L791.16,1363.82z"/>
	<path class="st12" d="M709.37,1476.39c0,0,44.37-124.65,50.4-126.76c6.04-2.11,34.1,9.36,34.41,13.58
		c0.3,4.23-45.93,117.82-45.93,117.82l-4.47,10.75l-38.63-5.43L709.37,1476.39z"/>
	<path class="st14" d="M655.65,1491.08c0,0,4.23-69.3,12.07-80.02c7.85-10.72,22.94-15.15,24.75-18.37
		c1.81-3.22,6.04-47.88,23.54-47.88c17.5,0,7.85,48.89,9.66,52.51c1.81,3.62,11.46,1.72,12.68,20.62
		c1.21,18.91-12.07,76.95-12.07,76.95L655.65,1491.08z"/>
	<path class="st0" d="M663.47,1423.45c0,0,17.99,15.82,34.44,17.48s39.51-6.51,39.51-6.51l-1.47,10.66c0,0-20.31,6.27-38.91,4.46
		s-35.54-15.48-35.54-15.48L663.47,1423.45z"/>
	<path class="st12" d="M661.5,1434.05c0,0,19.09,13.82,35.54,15.48c16.45,1.66,38.91-4.46,38.91-4.46l-1.74,10.5
		c0,0-19.32,5.98-37.92,4.17c-18.6-1.81-36.27-15.35-36.27-15.35L661.5,1434.05z"/>
	<path class="st0" d="M573.52,1465.13c0,0,19.96,158.54,24.79,171.82c4.83,13.28,49.25,33.8,82.57,32.59
		c33.32-1.21,89.46-26.56,93.08-36.22c3.62-9.66,14.1-178.26,14.1-178.26s-51.44,17.7-91.02,19.51
		C657.46,1476.39,573.52,1465.13,573.52,1465.13z"/>
</g>
<g id="Layer_7">
	<path d="M1216.2,1100.8c-15.69,12.68-25.96,22.94-23.54,25.96c2.41,3.02,36.22,3.02,50.7,3.02c14.49,0,15.61,3.62,22.29-4.23
		s3.67-24.75,3.67-24.75H1216.2z"/>
	<path d="M1381.38,1100.8c-7.04,16.9-13.67,25.35-6.43,27.16s49.5-21.13,53.12-27.16c3.62-6.04-3.62-22.94-7.85-25.35
		S1381.38,1100.8,1381.38,1100.8z"/>
	<path class="st6" d="M1199.39,896.58c-8.15,53.12-6.34,114.28,0,144.06c6.34,29.78,7.55,59.79,11.77,64.3
		c4.23,4.51,55.73,12.79,64.59,0c-7.16-33.55-24.47-72.07-23.1-94.14c1.37-22.07,0.57-42.59,7.41-43.4
		c6.84-0.8,21.73,59.15,38.23,75.25c16.5,16.1,73.25,61.8,77.66,61.17c4.41-0.64,23.74-7.24,34.2-13.68s14.08-10.86,14.89-20.12
		c-8.05-16.1-33.4-45.07-46.68-63.58c-13.28-18.51-41.05-109.86-41.05-109.86H1199.39z"/>
	<path class="st13" d="M819.02,904.36c7.81-18.49,638.38,178.84,754.91,232.86c12.91,5.98,9.01,8.14,8.05,10.17
		c-0.89,1.88,3.35,7.3-9.26,5.32C1448.71,1133.29,804.78,938.09,819.02,904.36z"/>
	<path class="st11" d="M1101.81,972.23c0.6,11.17-3.92,27.16-1.81,29.28c2.11,2.11,7.56-4.11,7.56-4.11s-1.52,13.77,2.71,15.88
		c4.23,2.11,9.96-11.47,9.96-11.47s0.91,15.39,5.73,15.69s9.98-11.1,9.67-20.79c-0.31-9.69-10.57-35.04-10.57-35.04L1101.81,972.23z
		"/>
	<path class="st11" d="M1275.35,989.59c-9.66,12.02-24.95,21.68-25.35,26.1c-0.4,4.43,5.39,5.51,5.39,5.51s-26.31,29.1-22.29,31.92
		s10.06-2.41,10.06-2.41s-6.04,7.65-4.02,9.66c2.01,2.01,12.47-4.02,12.47-4.02s-3.62,4.83-1.21,8.05
		c2.41,3.22,17.3-6.44,21.73-10.06c4.43-3.62,29.72-39.03,29.72-39.03L1275.35,989.59z"/>
	<path class="st12" d="M1198.69,722.34c-70.68,6.9-127.36,63.48-138.83,131.34s37.36,119.45,39.57,122.58
		c2.21,3.13,27.29-5.23,28.97-9.66c1.68-4.43-10.94-43.46-10.87-66.8s9.66-45.59,13.92-50.16c4.26-4.57,19.55-12.21,19.55-12.21
		s5.23,33.4,22.53,52.31c17.3,18.91,37.42,41.05,65.19,38.23c27.77-2.82,73.64-22.53,73.64-22.53s-4.02,24.95-12.47,39.44
		c-8.45,14.49-32.63,47.8-32.63,47.8s9.64,21.3,18.15,27.45c8.51,6.15,19.32,4.02,19.32,4.02s58.75-33.2,70.82-71.83
		c12.07-38.63,25.35-68.21,10.86-117.7s-30.18-80.28-68.21-98.39C1280.18,718.11,1223.44,719.92,1198.69,722.34z"/>
	<path d="M1166.7,743.16c-8.75-22.33-7.85-43.46,1.81-51.91c9.66-8.45,22.64-12.07,37.42-3.02c14.79,9.05,21.43,17.95,23.54,24.82
		c2.11,6.87-9.05,24.98-9.05,24.98L1166.7,743.16z"/>
	<path class="st11" d="M1176.16,732.6c0,0-11.07-8.86-15.49-1.41c-4.43,7.45,6.64,19.12,18.11,16.91
		c9.05,10.86,24.75,28.77,37.62,23.34c12.88-5.43,9.03-34.41,9.03-34.41s15.42-17.78,8.27-23.97c-7.15-6.19-17.3,9.48-17.3,9.48
		l-1.81-4.43c0,0-4.02,5.03-14.49,7.65c-10.46,2.62-25.15-1.81-25.15-1.81L1176.16,732.6z"/>
	<path class="st12" d="M1563.31,1242.95c0,0,62.74,35.01,64.25,30.78c1.51-4.23-4.23-9.36-4.23-9.36s15.69,2.41,18.71-2.41
		s-8.02-14.79-8.02-14.79s23.41,5.13,27.94-1.51c4.53-6.64-4.83-15.68-4.83-15.68s13.88-1.22,15.09-4.84s-3.02-11.96-3.02-11.96
		s7.85,0.19,10.56-4.04c2.72-4.23-2.11-12.76-2.11-12.76s8.14-0.03,10.26-4.95s-5.13-17-5.13-17s14.79-5.13,17.81-8.75
		c3.02-3.62-2.72-14.49-2.72-14.49s9.96,0.82,13.28-3.81c3.32-4.64-2.4-15.1-2.4-15.1s12.66-4.02,13.87-7.04
		c1.21-3.02,3.13-10.8-12.07-21.73c-15.2-10.93-60.96-33.5-60.96-33.5l-35.01,77.87L1563.31,1242.95z"/>
	<path class="st13" d="M1563.31,1245.66c-24.26-7.7-1.85-161.77,86.28-175.65C1619.41,1196.67,1563.31,1245.66,1563.31,1245.66z"/>
	<path class="st12" d="M1567.2,1141.84c2.31-6.74,11.26-19.35,14.88-20.86c9.2,10.63,8.51,15.02,5.04,27.71
		c-4.12,15.09-25.3,19.56-25.3,19.56S1563.27,1153.31,1567.2,1141.84z"/>
	<path class="st17" d="M1203.97,735.31c-1.91-3.18,8.75-8.15,10.11-5.58C1215.44,732.3,1205.33,737.58,1203.97,735.31z"/>
	<path class="st17" d="M1179.97,741.04c-0.91-3.6,10.74-5.27,11.29-2.42S1180.61,743.6,1179.97,741.04z"/>
</g>
<g id="Layer_8">
	<path class="st14" d="M2238.11,1359.75c-19.32,21.13-33.31,29.53-25.96,38.03c16.9,19.52,44.67,2.41,57.95,0s9.54-25.35,9.54-25.35
		L2238.11,1359.75z"/>
	<path class="st14" d="M2282.97,1411.25c-19.72,13.68-32.1,22.76-30.86,25.15c4.7,9.05,24.02,7.44,39.31,5.03
		c15.29-2.41,26.24,0.61,26.24,0.61s6.35-4.23,6.75-11.87c0.4-7.65,0-16.9,0-16.9L2282.97,1411.25z"/>
	<path class="st18" d="M2239.11,1212.06c0,0-6.42,146.74-6.43,153.45c-0.01,6.71,28.07,24.66,37.01,24.42
		c8.94-0.24,24.95-9.25,24.95-9.25l-15.01-146.88L2239.11,1212.06z"/>
	<path class="st19" d="M2369.09,1205.22c0,0-25.35,97.92-27.77,112.64c-2.41,14.72-10.26,87.36-16.9,95.41
		c-6.64,8.05-40.91,9.26-44.3,2.01s-21.49-76.09-20.89-102.63c0.6-26.54,4.43-70.6,4.43-70.6L2369.09,1205.22z"/>
	<g>
		<path class="st20" d="M1723.42,1388.72c0,0,8.66,26.96,31.19,36.22c22.53,9.26,124.03-15.41,141.09-30.04s35.17-64.73,35.17-64.73
			s-2.41-19.92-10.86-36.82c-8.45-16.9-37.02-31.19-69.42-47.69c-32.4-16.49-45.27-19.32-45.27-19.32l-134,59.76L1723.42,1388.72z"
			/>
		<g>
			<path class="st20" d="M1735.3,1384.49c0,0,36.22-83.3,41.65-103.82s6.64-50.69,6.64-50.69"/>
			<path class="st20" d="M1702.71,1367.59c18.71-25.96,33.77-54.32,42.54-71.83c8.77-17.5,7.56-50.1,7.56-50.1"/>
			<path class="st20" d="M1833.09,1218.05c-19.32,75.9-49.5,149.54-49.5,149.54"/>
			<path class="st20" d="M1723.42,1251.62c40.97,36.25,106.04,101.48,106.04,101.48s28.37-82.09,33.2-142.45"/>
			<path class="st20" d="M1888.01,1226.35c-0.6,50.1-25.35,111.67-25.35,111.67"/>
			<path class="st20" d="M1913.97,1266.19c-14.49,45.87-23.54,60.47-23.54,60.47"/>
			<path class="st20" d="M1719,1257.13c-13.28,44.06-31.39,75.45-31.39,75.45"/>
			<path class="st20" d="M1745.24,1384.49c15.41,32.59,55.85,39.45,55.85,39.45"/>
			<path class="st20" d="M1776.35,1377.85c19.32,31.99,53.12,40.5,53.12,40.5"/>
			<path class="st20" d="M1808.34,1372.33c18.71,26.65,54.32,37.04,54.32,37.04"/>
			<g>
				<path class="st20" d="M1841.54,1367.59c6.64,15.69,46.48,32.05,46.48,32.05c10.66-24.2,16.57-52.57,16.57-52.57"/>
			</g>
			<path class="st20" d="M1864.78,1353.11c9.32,18.17,39.81,31.39,39.81,31.39"/>
			<path class="st20" d="M1895.7,1347.07c15.85,12.68,20.9,16.41,20.9,16.41"/>
		</g>
		<path class="st20" d="M1765.73,1244.01c34.76,17.96,118.95,82.65,118.95,82.65"/>
		<path class="st20" d="M1671.32,1286.11c33.8,9.8,101.85,81.49,101.85,81.49"/>
		<path class="st20" d="M1754.62,1424.94c20.03-10.7,39.87-38.79,39.87-38.79"/>
		<path class="st20" d="M1808.34,1420.07c22.74-18.07,27.16-48.18,27.16-48.18"/>
		<path class="st20" d="M1855.98,1407.01c12.92-22.72,19.36-47.26,19.36-47.26"/>
	</g>
	<path class="st6" d="M2263.25,1161.36c-12.07-23.34-346.87,96.58-346.87,96.58s-24.14-46.68-43.46-52.72
		c-19.32-6.04-188.33,44.67-205.23,73.64c-16.9,28.97,32.58,107.04,55.73,115.09c23.15,8.05,217.91-37.02,222.74-62.78
		c4.83-25.75-14.49-46.68-14.49-46.68S2275.32,1184.7,2263.25,1161.36z M1913.97,1307.5c-9.66,13.21-161.77,69.55-182.69,62.3
		c-20.93-7.24-55.53-60.36-53.12-78.07c1.86-13.63,160.16-78.07,183.5-69.21C1885,1231.38,1923.63,1294.29,1913.97,1307.5z"/>
	<path class="st21" d="M2153,1181.08c10.86,18.91,25.75,28.97,31.39,28.97c5.63,0,9.21-2.82,8.02-10.06
		c-1.18-7.24,4.16,2.87,14.11-3.33s3.22-10.76,3.22-10.76s12.73-6.22,8.05-12.18c-4.68-5.95-35.81-11.56-35.81-11.56L2153,1181.08z"
		/>
	<path class="st13" d="M2149.38,1185.39c7.12,11.76,42.25-18.19,42.25-18.19s-3.62-32.44,0-43.68
		c3.62-11.24,10.86-30.56,10.86-30.56s-10.26,47.08,0,60.96c10.26,13.88,30.19,38.41,30.19,38.41l68.18-8.93l68.22-67.51
		c0,0,30.18-18.11,17.5-41.05c-12.68-22.94-32.59-41.65-54.93-56.14s-71.83-41.65-108.05-21.73c-36.22,19.92-79.07,50.1-85.11,97.78
		C2132.48,1142.45,2143.95,1176.41,2149.38,1185.39z"/>
	<path class="st21" d="M2140.12,1237.82c0,0-7.24,0.4-19.72-2.41c-12.47-2.82-24.95-14.08-24.14-16.9c0.8-2.82,18.91,0,18.91,0
		s-12.88-6.04-8.05-11.67s20.39,3.22,20.39,3.22s-10.73-6.44-3.89-10.86c6.84-4.43,19.77,8.6,33.4,6.04
		c13.63-2.57,10.46,4.83,10.46,4.83L2140.12,1237.82z"/>
	<path class="st13" d="M2387.64,1076.94c5.99,17.62,14.93,69.08,0,105.32c-14.93,36.24-46.72,74.47-101.05,84.53
		c-54.32,10.06-144.62-13.21-149.79-21.33c-5.17-8.12,17.11-35.41,28.73-40.24c11.61-4.83,64.73-14.08,64.73-14.08
		s-19.26-25.97-22.91-30.79C2203.69,1155.53,2387.64,1076.94,2387.64,1076.94z"/>
	<path class="st21" d="M2252.79,963.38c-4.82,26.72,4.8,46.68,6.42,51.51c1.62,4.83,6.45,40.24,24.16,37.02
		c17.71-3.22,20.93-33.8,20.93-33.8s26.56-16.1,23.34-28.17c-3.22-12.07-25.75,0-25.75,0s-14.49-6.44-17.71-16.9
		c-3.22-10.46-8.85-14.32-8.85-14.32s-4.84,3.06-12.08,6.28C2256.01,968.21,2252.79,963.38,2252.79,963.38z"/>
	<path class="st6" d="M2327.91,931.99l41.18,76.46c0,0,31.86-16.37,43.09-42.79c11.23-26.42,10.43-57.81,10.43-57.81
		s-62.78-16.9-77.26-8.05c-14.49,8.85-24.14,25.75-24.14,25.75L2327.91,931.99z"/>
	<path class="st22" d="M2314.36,926.76c3.22-4.83,14.6-6.4,18.51-3.22c10.86,8.85-2.01,25.35-2.01,25.35L2314.36,926.76z"/>
	<path class="st0" d="M2293.32,985.71c0,1.67-2.7,3.02-6.04,3.02s-6.04-1.35-6.04-3.02c0-1.67,2.7-3.02,6.04-3.02
		S2293.32,984.04,2293.32,985.71z"/>
	<path class="st6" d="M2251.46,965.79c1.34-14.08,24.28-41.45,43.59-40.24c19.32,1.21,26.89,3.57,30.75,9.83
		c3.86,6.26,8.28,16.72,7.28,25.58c-1.01,8.85-5.76,34.47-5.76,34.47s2.28-5.15-1.52-8.78c-5.3-5.06-24.16,4.6-24.16,4.6
		s-8.6-4.12-12.83-9.96c-4.23-5.83-14.18-22.57-14.18-22.57s-6.29,5.11-11.37,7.03S2251.46,965.79,2251.46,965.79z"/>
	<path class="st0" d="M2260.36,979.92c-0.59,1.56-3.03,2.08-5.45,1.17c-2.42-0.91-3.91-2.91-3.32-4.47
		c0.59-1.56,3.03-2.08,5.45-1.17C2259.46,976.36,2260.94,978.36,2260.36,979.92z"/>
</g>
<g id="Layer_12">
	<path class="st23" d="M1193.56,724.45c3.69,15.79,5.39,38.52,13.96,26.26"/>
	<line class="st23" x1="1223.74" y1="726.56" x2="1228.66" y2="720.85"/>
	<line class="st23" x1="1168.51" y1="735.86" x2="1173.04" y2="739.68"/>
	<path class="st23" d="M1201.71,760.97c3.22,4.02,12.93,6.24,12.5-4.43"/>
	<path class="st23" d="M1151.01,837.42c-0.8-10.66,7.24-34.2,7.24-34.2"/>
	<path class="st23" d="M1281.39,788.13c23.84,15.09,48.89,71.83,28.11,118.51"/>
	<path class="st23" d="M1239.14,946.73c5.28,9.21,14.13,17.18,18.86,19.92s5.55,3.02,8.05,8.73"/>
	<path class="st23" d="M1234,1053.6c3.81,0.05,23.41-15.17,27.85-21.41"/>
	<path class="st23" d="M1242.95,1060.31c5.64,0.45,24.31-20.67,24.31-20.67"/>
	<path class="st23" d="M466.52,1344.05c4.23,15.69,0,49.73,0,49.73"/>
	<path class="st23" d="M531.77,1195.47c-1.54-4.66,7.68-17.11,9.34-0.22"/>
	<path class="st23" d="M558.33,1232.32c-6.56,8.55-0.46,13.51-0.46,13.51"/>
	<line class="st23" x1="762.09" y1="1361.88" x2="766.55" y2="1363.47"/>
	<line class="st23" x1="762.09" y1="1372.47" x2="767.82" y2="1374.68"/>
	<line class="st23" x1="778.74" y1="1368.85" x2="782.91" y2="1370.38"/>
	<line class="st23" x1="773.9" y1="1382.13" x2="777.13" y2="1383.34"/>
	<line class="st23" x1="755.45" y1="1383.34" x2="759.97" y2="1385.45"/>
	<line class="st23" x1="759.97" y1="1399.33" x2="765.54" y2="1402.52"/>
	<line class="st23" x1="773.9" y1="1393.3" x2="777.13" y2="1394.67"/>
	<line class="st23" x1="743.68" y1="1393.3" x2="748.29" y2="1394.67"/>
	<line class="st23" x1="740.96" y1="1407.94" x2="743.68" y2="1408.77"/>
	<line class="st23" x1="762.76" y1="1413.82" x2="767.82" y2="1416.24"/>
	<line class="st23" x1="740.96" y1="1425.43" x2="745.98" y2="1427.1"/>
	<line class="st23" x1="755.45" y1="1418.96" x2="759.07" y2="1420.76"/>
	<line class="st23" x1="740.96" y1="1443.7" x2="745.98" y2="1445.21"/>
	<line class="st23" x1="752.46" y1="1432.98" x2="756.21" y2="1434.04"/>
	<line class="st23" x1="743.47" y1="1458.62" x2="748.29" y2="1460.3"/>
	<path class="st23" d="M1026.66,1215.87c22.86-4.97,52.92-24.94,74.45-24.73c21.53,0.2,32.29,14.16,43.46,12.37
		c11.17-1.79,33.27-14.81,45.07-12.4c11.8,2.4,42.29,14.78,54.95,15.86s34.34,0.38,34.34,0.38"/>
	<line class="st23" x1="1657.64" y1="1186.71" x2="1677.66" y2="1196.39"/>
	<line class="st23" x1="1657.64" y1="1163.37" x2="1682.79" y2="1174.44"/>
	<line class="st23" x1="1674.14" y1="1150.5" x2="1686.08" y2="1156.88"/>
	<line class="st23" x1="1643.37" y1="1093.84" x2="1708.76" y2="1132.28"/>
	<line class="st23" x1="1591.64" y1="1247.48" x2="1623.33" y2="1264.38"/>
	<line class="st23" x1="1634.03" y1="1218.05" x2="1657.13" y2="1229.98"/>
	<line class="st23" x1="1991.23" y1="1215.87" x2="1993.72" y2="1147.39"/>
	<path class="st23" d="M1963.91,1398.11c12.03-17.84,30.28-21.37,47.72-11.95c17.44,9.41,31.12-4.27,43.19-5.48
		s36.22,15.31,36.22,15.31"/>
	<path class="st23" d="M1142.8,1399.64c21.89-32.25,120.08-34.97,142.62-13.49c22.53,21.48,32.96-19.04,51.51-12.79
		s26.56,16.19,39.44,15.98c12.88-0.21,31.39-5.42,39.44,0"/>
	<path class="st23" d="M1554.16,1432.83c19.37-9.1,26.96-19.14,47.71-12.11s19.14,10.27,36.44,6.24c17.3-4.04,23.54-2.72,30.88-1.36
		"/>
	<path class="st23" d="M2222.61,1196.67c32.78-7.31,87.86-0.34,105.3-87.64"/>
	<path class="st23" d="M2274.05,959.9c-7.24,22.43-13.6,41.27-3.95,45.51"/>
	<path class="st23" d="M2311.55,992.67c3.62-3.13,11.99-2.88,9.66,5.72"/>
	<path class="st23" d="M2265.95,1012.47c4.55,4.43,9.95,4.02,15.3,0"/>
	<path class="st23" d="M2259.86,1017.42c4.7,13.87,20.7,15.78,34.98,6.22"/>
	<path class="st23" d="M2252.86,1437.57c13.42,9.1,40.18,3.93,47.42,3c7.24-0.94,19.15,0,19.15,0"/>
	<path class="st23" d="M2210.16,1391.34c1.99,6.44,11.19,17.01,22.53,15.67s18.26-5.01,26.53-6.82c8.27-1.81,15.07-4.18,15.07-4.18"
		/>
	<path class="st23" d="M2292.01,1441.73c4.38-7.1,20.68-19.8,32.58-17.8"/>
	<path class="st23" d="M2253.74,1401.66c2.47-6.3,9.82-12.56,9.82-12.56"/>
	<line class="st23" x1="2220.2" y1="1381.88" x2="2227.24" y2="1389.1"/>
	<line class="st23" x1="2227.24" y1="1376.45" x2="2233.88" y2="1383.38"/>
	<line class="st23" x1="2230.56" y1="1372.42" x2="2238.51" y2="1379.91"/>
	<line class="st23" x1="2270.1" y1="1423.72" x2="2275.33" y2="1427.29"/>
	<line class="st23" x1="2275.33" y1="1420.07" x2="2280.12" y2="1422.92"/>
	<line class="st23" x1="2263.66" y1="1427.29" x2="2267.68" y2="1430.17"/>
	<path class="st23" d="M743.44,1283.69c9.18-9.66,12.4-14.89,45.4-7.04c33,7.85,58.75,6.11,76.46,7.04
		c17.71,0.94,79.45-12.88,105.32-16.1c25.87-3.22,36.33,4.43,50.82,9.05"/>
	<path class="st23" d="M726.61,1398.41c5.35,3.35,9.3,8.47,10.8,12.9c1.5,4.43,0.89,16.96-0.55,26.31
		c-1.44,9.34-5.09,31.08-5.09,31.08"/>
	<path d="M573.25,1211.4c0.77,0.95,2.55,0.8,3.97-0.35c1.42-1.15,1.94-2.86,1.17-3.81c-0.77-0.95-2.55-0.8-3.97,0.35
		C573,1208.74,572.47,1210.44,573.25,1211.4z"/>
	<path d="M1187.14,739.2c0.37,1.16-0.03,2.32-0.87,2.58c-0.85,0.27-1.83-0.46-2.2-1.61c-0.37-1.16,0.03-2.32,0.88-2.58
		S1186.77,738.04,1187.14,739.2z"/>
	<path d="M1210.51,731.96c0.37,1.16-0.03,2.32-0.87,2.58s-1.83-0.46-2.2-1.61c-0.37-1.16,0.03-2.32,0.87-2.58
		C1209.17,730.08,1210.15,730.8,1210.51,731.96z"/>
	<path d="M2256.61,978.5c-0.53,1.72-1.5,2.94-2.16,2.74c-0.66-0.2-0.77-1.76-0.24-3.48s1.5-2.94,2.16-2.74
		C2257.03,975.22,2257.14,976.78,2256.61,978.5z"/>
	<path d="M2288.51,985.42c0.41,1.75,0.19,3.29-0.48,3.45c-0.68,0.16-1.55-1.13-1.96-2.88c-0.41-1.75-0.19-3.29,0.48-3.45
		C2287.22,982.38,2288.1,983.67,2288.51,985.42z"/>
	<path class="st23" d="M1425.05,1275.28c35.01-10.91,42.25-21.77,65.19-10.91s38.84,33.2,52.01,30.48s29.05-22.38,39.83-17.38
		c10.77,5,29.61,23.51,29.61,23.51"/>
</g>
</svg>
