<?xml version="1.0" encoding="UTF-8" standalone="no"?>
<!-- Generator: Adobe Illustrator 26.3.1, SVG Export Plug-In . SVG Version: 6.00 Build 0)  -->

<svg
   version="1.1"
   x="0px"
   y="0px"
   viewBox="0 0 2500 1199.0699"
   xml:space="preserve"
   id="svg662"
   sodipodi:docname="piscina.svg"
   width="2500"
   height="1199.0699"
   inkscape:export-filename="capa.svg"
   inkscape:export-xdpi="41.472"
   inkscape:export-ydpi="41.472"
   xmlns:inkscape="http://www.inkscape.org/namespaces/inkscape"
   xmlns:sodipodi="http://sodipodi.sourceforge.net/DTD/sodipodi-0.dtd"
   xmlns="http://www.w3.org/2000/svg"
   xmlns:svg="http://www.w3.org/2000/svg"><defs
   id="defs666" /><sodipodi:namedview
   id="namedview664"
   pagecolor="#505050"
   bordercolor="#ffffff"
   borderopacity="1"
   inkscape:showpageshadow="0"
   inkscape:pageopacity="0"
   inkscape:pagecheckerboard="1"
   inkscape:deskcolor="#505050"
   showgrid="false" />
<style
   type="text/css"
   id="style335">
	.st0{fill:#FFFFFF;}
	.st1{fill:#FFD6BB;}
	.st2{fill:#FFE8DC;}
	.st3{opacity:0.45;}
	.st4{fill:#3BD4DB;}
	.st5{fill:#DBEFE3;}
	.st6{fill:#004884;}
	.st7{display:none;opacity:0.45;}
	.st8{display:inline;}
	.st9{fill:#A9A9A9;}
	.st10{fill:#01335E;}
	.st11{fill:#FC9858;}
	.st12{fill:#F93401;}
	.st13{fill:#FFBF25;}
	.st14{fill:#FEC025;}
	.st15{fill:#FFBF27;}
	.st16{fill:#004A83;}
	.st17{fill:#FAFDFF;}
	.st18{fill:#018793;}
	.st19{fill:#00A7B7;}
	.st20{fill:none;stroke:#FFFFFF;stroke-width:7;stroke-linecap:round;stroke-linejoin:round;stroke-miterlimit:10;}
	.st21{fill:#C17449;}
	.st22{fill:#FFBE2A;}
	.st23{fill:none;stroke:#000000;stroke-width:2;stroke-linecap:round;stroke-linejoin:round;stroke-miterlimit:10;}
</style>

<g
   id="Layer_13"
   transform="translate(0,-618.6)">
	<rect
   y="618.60999"
   class="st1"
   width="2500"
   height="1198.89"
   id="rect340"
   x="0" />
</g>
<g
   id="Layer_14"
   transform="translate(0,-618.6)">
	<g
   id="g345">
		<path
   class="st2"
   d="m 2500,1542.26 h -227.38 l -207.83,-263.97 h 392.69 l 42.52,53.97 v -9.67 l -34.88,-44.3 34.88,0.3 v -6.42 l -39.61,0.12 -178.24,-226.39 H 2500 v -6 H 2277.43 L 2128.22,850.39 h 308.35 L 2500,933 v -12.25 l -55.79,-70.37 H 2500 v -6 h -60.51 L 2344.58,723.83 H 2500 v -6 h -160.15 l -78.13,-99.23 h -7.64 l 78.13,99.23 h -308.35 l -78.13,-99.23 h -7.64 l 78.13,99.23 h -392.69 l -78.13,-99.23 -7.49,0.19 77.98,99.04 h -346.97 l -78.13,-99.23 h -7.64 l 78.13,99.23 H 881.7 L 803.57,618.6 h -7.64 l 78.13,99.23 H 390.33 L 312.2,618.6 h -8.27 l 78.76,99.23 H 12.18 L 0,702.37 v 9.7 l 4.54,5.77 H 0 v 6 h 9.26 l 94.91,120.55 H 0 v 6 H 108.9 L 258.11,1039.9 H 0 v 6.11 l 262.83,-0.11 178.24,226.39 H 55.63 L 0,1202.04 v 9.28 l 47.99,60.96 H 0 v 6 H 52.72 L 260.55,1542.25 0,1542.5 v 7 l 265.28,-1.24 123.62,157.01 -388.9,-0.52 0.01,2.02 -0.01,-0.01 v 9.7 l 79.55,101.04 h 7.64 l -83.23,-105.71 389.66,-0.52 83.63,106.22 h 7.64 L 401.26,1711.27 H 786.7 l 83.63,106.22 h 7.64 l -83.63,-106.22 h 370.52 l 83.63,106.22 h 7.64 l -83.63,-106.22 h 483.73 l 83.63,106.22 h 7.64 l -83.63,-106.22 h 379.6 l 83.38,106.22 h 7.75 l -83.49,-106.22 h 346.97 l 84.28,106.4 6.83,-0.17 -83.47,-106.22 H 2500 v -6 h -99.03 L 2277.35,1548.27 H 2500 Z m -235.01,0 h -346.97 l -207.83,-263.97 h 346.97 z m -737.77,-496.37 h 346.97 l 178.24,226.39 h -346.97 z m 170.61,226.39 h -379.6 l -178.24,-226.39 h 379.6 z M 1522.5,1039.89 1373.29,850.38 h 346.97 l 149.21,189.51 z m -7.64,0 h -379.6 L 986.05,850.38 h 379.6 z m -387.24,0 H 643.89 L 494.69,850.38 h 483.73 z m 4.73,6 178.24,226.39 H 826.86 L 648.62,1045.89 Z m -100.57,496.37 H 661.26 L 453.43,1278.29 h 370.52 z m -200.2,-263.98 h 483.73 l 207.83,263.97 h -483.73 z m 491.37,0 h 379.6 l 207.83,263.97 h -379.6 z m 1129.81,-6 h -392.69 l -178.24,-226.39 h 392.69 z M 2269.79,1039.89 H 1877.1 L 1727.9,850.38 h 392.69 z m 67.15,-316.05 94.91,120.55 H 2123.5 l -94.91,-120.55 z m -315.99,0 94.91,120.55 h -392.69 l -94.91,-120.55 z m -400.33,0 94.91,120.55 h -346.97 l -94.91,-120.55 z m -354.6,0 94.91,120.55 H 981.33 L 886.42,723.84 Z m -387.24,0 94.91,120.55 H 489.96 L 395.05,723.84 Z m -861.88,0 h 370.52 l 94.91,120.55 H 111.81 Z m 99.63,126.54 h 370.52 l 149.21,189.51 H 265.74 Z m 153.93,195.51 h 370.52 l 178.24,226.39 H 448.71 Z M 60.35,1278.28 h 385.44 l 207.83,263.97 H 268.19 Z m 336.18,426.99 -123.62,-157.01 h 385.44 l 123.62,157.01 z m 393.08,0 -123.62,-157.01 h 370.52 l 123.62,157.01 z m 378.15,0 -123.62,-157.01 h 483.73 l 123.62,157.01 z m 491.37,0 -123.62,-157.01 h 379.6 l 123.62,157.01 z m 734.2,0 h -346.97 l -123.62,-157.01 h 346.97 z"
   id="path343" />
	</g>
</g>
<g
   id="Layer_10"
   class="st3"
   transform="translate(0,-618.6)">
	<path
   d="m 2280.12,1424.94 c -9.83,-4.77 -47.44,-20.72 -47.44,-20.72 l 91.92,-20.84 c 0,0 137.44,2.12 135.03,27.88 -2.41,25.75 -153.27,29.31 -153.27,29.31 z"
   id="path348" />
	<path
   d="m 666.93,1668.91 c 49.74,2.59 210.53,-4.6 213.75,-40.01 3.22,-35.41 -173.95,-21.73 -173.95,-21.73 z"
   id="path350" />
	<path
   d="m 74.98,1545.26 86.92,-43.24 c 0,0 37.02,-10.38 84.51,0.33 47.48,10.72 147.21,-0.94 187.89,-8.8 40.68,-7.85 76.09,-16.84 76.09,-16.84 l -66.8,-43.88 c 0,0 -43.46,1.05 -79.68,0 -36.22,-1.05 -103.82,11.21 -103.82,11.21 l -168.21,44.97 z"
   id="path352" />
	<path
   d="m 1342.55,1148.69 c 0,0 -446.58,-166.8 -440.19,-183.7 6.39,-16.9 357.29,144.69 373.39,139.95 16.1,-4.74 53.92,0.31 54.73,6.64 0.81,6.33 -12.07,12.13 -12.07,12.13 l 82.02,24.98 z"
   id="path354" />
	<path
   d="m 1392.75,1120.98 c 30,-6.62 108.35,-6.55 112.38,-19.3 4.02,-12.75 -54.13,-13.17 -70.21,-15.54 -16.08,-2.37 -37.64,21.32 -37.64,21.32 z"
   id="path356" />
	<polygon
   points="1582.08,1172.05 1563.31,1202.41 1476.15,1147.39 1535.71,1148.69 "
   id="polygon358" />
</g>
<g
   id="Layer_5"
   transform="translate(0,-618.6)">
	<polygon
   class="st4"
   points="2279.64,1467.19 1993.72,1147.39 345.95,1147.39 497.65,1500.72 "
   id="polygon361" />
	<polygon
   class="st5"
   points="345.95,1147.39 375.35,1215.87 1991.23,1215.87 2256.85,1467.62 2279.64,1467.19 1993.72,1147.39 "
   id="polygon363" />
	<path
   class="st4"
   d="m 1034.31,1215.87 c 36.22,-10.25 47.48,-23.93 66.8,-24.73 19.32,-0.8 28.17,11.86 43.46,12.37 15.29,0.51 29.78,-13.25 45.07,-12.4 15.29,0.85 53.12,19.35 67.6,16.94 14.49,-2.41 38.63,0.21 61.17,4.02 22.53,3.81 62.97,11.27 62.97,11.27 l -363.97,10.46 z"
   id="path365" />
	<path
   class="st4"
   d="m 1509.15,1223.33 c 20.12,-12.88 44.77,-22.95 54.16,-26.67 9.39,-3.72 65.76,31.49 70.58,33.1 4.83,1.62 -124.74,-6.43 -124.74,-6.43 z"
   id="path367" />
	<path
   class="st4"
   d="m 715.6,1117.7 c -5.03,0.35 -12.67,2.01 -12.87,7.65 -0.2,5.63 4.63,10.06 13.68,10.06 9.05,0 13.48,-6.64 13.48,-8.85 0,-2.22 -2.62,-9.67 -14.29,-8.86 z"
   id="path369" />
	<path
   class="st4"
   d="m 883.41,1114.88 c -5.03,0.35 -12.67,2.01 -12.87,7.65 -0.2,5.63 4.63,10.06 13.68,10.06 9.05,0 13.48,-6.64 13.48,-8.85 -0.01,-2.22 -2.63,-9.66 -14.29,-8.86 z"
   id="path371" />
	<path
   class="st6"
   d="m 973.55,1002.81 c -8.45,-13.08 -29.58,-30.15 -53.12,-10.15 -23.54,20 -33.41,62.86 -36.32,76.74 -2.91,13.88 -9.25,45.12 -7.89,48.44 1.36,3.32 9.81,5.73 14.03,-1.21 4.23,-6.94 12.07,-54.27 19.32,-71.98 7.24,-17.71 19.32,-49.9 36.22,-42.65 16.9,7.24 12.88,57.95 13.68,81.29 0.8,23.34 -2.41,46.78 -2.41,46.78 H 809.77 c 0,0 8.85,-83 0.8,-110.36 -8.05,-27.36 -24.14,-38.63 -40.24,-36.21 -16.1,2.41 -37.02,16.23 -48.29,43.12 -11.27,26.89 -13.88,94.3 -13.88,94.3 4.23,4.83 12.13,1.26 14.69,0 2.55,-1.26 2.41,-46.08 8.25,-63.18 5.83,-17.1 21.73,-49.5 32.19,-53.12 10.46,-3.62 15.9,-1.81 19.92,5.43 4.02,7.24 8.85,12.07 9.26,24.95 0.4,12.88 0.4,80.28 -1.21,97.58 -1.61,17.3 -11.47,140.64 -11.47,140.64 l 14.89,3.42 2.62,-25.55 150.3,-1.81 v 22.94 l 16.3,-3.02 c 0,0 12.07,-152.71 14.49,-181.69 2.4,-28.96 3.61,-71.62 -4.84,-84.7 z m -27.77,237.42 H 800.31 l 3.35,-43.57 H 948.8 Z m 6.04,-53.72 -147.6,-3.37 6.36,-38.89 h 146.68 z"
   id="path373" />
</g>
<g
   id="Layer_11"
   class="st7"
   transform="translate(0,-618.6)">
	<path
   class="st8"
   d="m 1618.23,1271.73 c 7.51,2.63 33.33,15.19 37.84,11.16 4.51,-4.03 -5.86,-11.16 -5.86,-11.16 0,0 13.08,2.04 16.23,-2.62 3.16,-4.66 -5.86,-13.99 -5.86,-13.99 0,0 22.54,-1.7 23,-5.09 0.46,-3.39 -5.86,-14.41 -5.86,-14.41 0,0 9.92,0 15.33,-4.24 5.41,-4.24 -6.31,-13.99 -6.31,-13.99 0,0 10.37,1.24 12.63,-4.04 2.25,-5.29 -3.38,-14.19 -3.38,-14.19 0,0 13.75,0 14.65,-4.24 0.9,-4.24 -4.96,-16.11 -4.96,-16.11 0,0 18.67,1.42 19.57,-3.9 0.9,-5.33 -11.27,-13.94 -11.27,-13.94 l 29.38,-13.57 h -46.68 l -57.73,51.76 z"
   id="path376" />
	<path
   class="st8"
   d="m 1808.34,1427.29 c 7.24,10.93 93.86,47 93.86,47 l 73.97,-1.39 c 0,0 40.41,-40.27 38.6,-67.36 -1.81,-27.09 -15.09,-50.27 -15.09,-50.27 l 91.44,-44.73 11.57,-41.27 -21.1,-23.61 -9.16,47.16 c 0,0 -87.23,42.18 -93.86,45.2 -6.64,3.02 -57.08,15.09 -57.08,15.09 l -19.3,30.27 -32.38,23.63 z"
   id="path378" />
	<path
   class="st8"
   d="m 883.41,1114.88 c 0,0 71.97,-21.45 96.75,2.76 24.78,24.2 30.21,46.58 29.01,64.65 -1.2,18.06 -2.41,33.59 -2.41,33.59 h -26.59 c 0,0 6.61,-37.54 0,-54.88 -6.61,-17.34 -9.67,-26.71 -33.79,-31.08 -24.12,-4.37 -59.13,0 -59.13,0 z"
   id="path380" />
	<path
   class="st8"
   d="m 718.93,1135.22 c 0,0 80.17,3.51 89.53,21.97 9.36,18.45 5.74,58.68 5.74,58.68 h 27.5 c 0,0 5.09,-57.73 -6.98,-77.65 -12.07,-19.92 -68.81,-24.55 -85.11,-26.46 -16.3,-1.91 -33.3,11.41 -33.3,11.41 z"
   id="path382" />
</g>
<g
   id="Layer_6"
   transform="translate(0,-618.6)">
	<path
   d="M 74.98,1404.22 H 49.22 c 0,0 -9.66,24.72 -8.05,39.82 1.61,15.1 20.12,41.67 20.12,41.67 0,0 -5.81,12.06 -3.31,26.54 2.5,14.49 16.99,33 16.99,33 0,0 14.49,-17.71 17.71,-24.14 3.22,-6.44 14.49,-35.4 14.49,-35.4 z"
   id="path385" />
	<path
   d="m 536.36,1190.04 c 4.47,-23.02 19.8,-41.6 40.44,-35.75 20.64,5.85 28.79,19.82 31.93,30.87 3.14,11.04 0.7,14.25 9.54,15.92 8.84,1.67 14.71,-4.18 14.71,-4.18 0,0 -5.55,15.8 -17.28,21.64 -11.73,5.84 -43.44,-2.72 -49.3,-2.73 -5.86,-0.01 -30.04,-25.77 -30.04,-25.77 z"
   id="path387" />
	<path
   class="st9"
   d="m 71.35,1393.15 c -9.26,4.43 -10.86,25.75 -8.45,36.22 2.41,10.46 19.32,22.9 19.32,22.9 l 126.76,-9.62 8.85,-114.69 c 0,0 -14.56,37.02 -31.06,52.72 -16.5,15.69 -40.1,13.28 -54.99,12.47 -14.88,-0.81 -55.83,-2.2 -60.43,0 z"
   id="path389" />
	<path
   class="st10"
   d="m 428.29,1360.95 c 0,0 -21.73,55.55 -10.46,74.05 11.27,18.5 70.02,28.16 70.02,28.16 l 6.44,-112.67 z"
   id="path391" />
	<path
   class="st11"
   d="m 596.9,1460.55 c 14.49,-0.6 28.37,6.64 35.01,14.49 6.64,7.85 19.3,22.8 19.3,22.8 H 596.9 Z"
   id="path393" />
	<path
   class="st11"
   d="m 514.28,1211.99 c 0,0 11.82,-10.23 11.69,-12.92 -0.13,-2.69 -5.76,-22.35 14.93,-23.52 18.3,-1.04 11.55,26.14 11.55,26.14 l 5.32,6.33 c 0,0 9.36,-13.65 12.46,-14.99 7.96,-3.46 15.85,6.64 16.46,14.31 0.61,7.67 0.99,33.29 -2.25,35.15 -3.24,1.86 -12.1,-5.03 -12.1,-5.03 0,0 -6.1,4.24 -11.83,7.13 -5.72,2.88 -20.32,8.91 -20.32,8.91 z"
   id="path395" />
	<path
   class="st0"
   d="m 286.64,1225.94 c -30.18,3.43 -37.42,2.22 -56.74,33.61 -19.32,31.39 -24.14,123.14 -30.18,147.28 -6.04,24.14 -3.62,30.18 -15.09,31.39 -11.47,1.21 -65.79,-2.2 -74.24,-3.21 -8.45,-1.01 -19.92,-3.81 -25.96,0 -6.04,3.81 -7.24,34.43 -3.62,44.17 3.62,9.74 13.28,21.35 16.3,22.84 3.02,1.49 121.93,4.41 138.83,3.2 16.9,-1.21 42.25,-10.01 45.87,-37.6 3.62,-27.59 12.96,-110.49 12.96,-110.49 z"
   id="path397" />
	<path
   class="st6"
   d="m 535.93,1241.44 c -15.6,-28.99 -15.09,-40.05 -48.89,-44.77 -33.8,-4.72 -119.5,12.08 -132.2,12.25 -12.7,0.17 -83.86,3.07 -92.93,20.52 -9.07,17.44 -8.47,71.16 4.21,112.21 12.68,41.05 23.54,70.93 48.29,78.92 24.75,8 70.02,1.96 96.58,-5.28 26.56,-7.24 57.95,-25.17 57.95,-25.17 0,0 -9.05,69.49 -4.83,77.51 4.23,8.02 19.32,26.73 62.78,27.34 43.46,0.6 85.11,2.88 85.11,2.88 0,0 3.62,-33.06 -4.23,-40.91 -7.85,-7.85 -65.79,-22.94 -69.41,-28.97 -3.62,-6.04 8.45,-97.18 7.85,-115.89 -0.62,-18.73 -2.36,-55.92 -10.28,-70.64 z"
   id="path399" />
	<path
   class="st0"
   d="m 570.81,1203.36 c 2.92,-3.03 13.55,6.82 8.92,10.96 -3.37,3.02 -11.77,-8 -8.92,-10.96 z"
   id="path401" />
</g>
<g
   id="Layer_9"
   transform="translate(0,-618.6)">
	<path
   class="st9"
   d="m 575.37,1468.14 c -13.81,-11.2 51.51,-32.99 94.97,-36.62 43.46,-3.63 122.56,12.24 117.72,23.54 -19.32,45.07 -178.03,41.18 -212.69,13.08 z"
   id="path404" />
	<path
   class="st12"
   d="m 522.66,1400.54 c -5.63,-12.47 -11.67,-41.31 -8.85,-42.18 2.82,-0.87 8.85,4.76 8.85,4.76 0,0 -4.43,-8.85 0,-10.06 4.43,-1.21 7.24,5.3 7.24,5.3 0,0 0.8,-7.71 5.23,-9.32 4.43,-1.61 10.06,4.43 10.06,4.43 0,0 1.21,-8.85 6.04,-10.46 4.83,-1.61 7.65,4.83 7.65,4.83 0,0 4.02,-8.85 6.44,-9.26 2.41,-0.4 4.43,4.83 4.43,4.83 0,0 3.22,-7.24 6.84,-7.65 3.62,-0.4 8.78,3.62 8.78,3.62 0,0 0.47,-8.05 3.69,-9.26 3.22,-1.21 6.44,4.83 6.44,4.83 0,0 1.21,-6.84 4.43,-7.44 3.22,-0.6 6.84,5.03 6.84,5.03 0,0 4.43,-8.45 8.45,-10.06 4.02,-1.61 20.93,46.24 20.93,46.24 z"
   id="path406" />
	<polygon
   class="st13"
   points="590.66,1425.89 615.61,1491.08 623.4,1491.08 601.53,1422.2 "
   id="polygon408" />
	<path
   class="st12"
   d="m 574.61,1414.82 30.54,-9.46 c 0,0 3.22,16.1 -7.04,20.72 -10.26,4.64 -23.5,-11.26 -23.5,-11.26 z"
   id="path410" />
	<path
   class="st14"
   d="m 522.66,1400.54 c -4.99,-7.84 104.83,-35.38 113.48,-31.83 0.36,8.19 -17,38.57 -42.96,46.11 -25.96,7.55 -65.59,-6.54 -70.52,-14.28 z"
   id="path412" />
	<path
   class="st0"
   d="m 772.55,1312.01 c 0,0 12.07,-2.01 13.08,0 1.01,2.01 2.21,12.27 0,12.68 -2.21,0.4 -18.71,0 -18.71,0 z"
   id="path414" />
	<path
   class="st0"
   d="m 755.45,1326.7 c -1.21,5.63 -16.3,18.71 -15.69,20.72 0.6,2.01 18.04,-5.43 22.1,-10.36 4.06,-4.93 6.07,-12.58 6.07,-12.58 z"
   id="path416" />
	<path
   class="st15"
   d="m 698.51,1327.5 c -5.94,-5 -1.81,-28.17 4.23,-30.38 6.04,-2.21 69.62,6.64 71.83,13.48 2.21,6.84 -1.21,15.09 -3.82,16.9 -2.62,1.81 -64.6,6.44 -72.24,0 z"
   id="path418" />
	<path
   class="st0"
   d="m 709.07,1324.58 c 3.32,-5.73 17.81,-9.56 20.22,2.92 -1.62,16.62 -4.83,32.39 -4.83,32.39 l -19.32,-1.54 z"
   id="path420" />
	<path
   class="st16"
   d="m 791.16,1363.82 c 6.04,1.51 22.94,6.48 22.03,11.09 -0.91,4.61 -8.45,4.91 -8.45,7.92 0,3.02 5.13,10.26 3.32,15.39 -1.81,5.13 -11.17,5.43 -12.07,8.45 -0.91,3.02 4.53,9.75 3.62,13.17 -0.91,3.42 -12.5,5.54 -12.74,7.95 -0.24,2.41 2.42,6.94 1.39,11.47 -1.03,4.53 -6.17,4.06 -9.33,7.31 -3.16,3.25 4.14,8.85 1.36,15.02 -2.77,6.17 -10.86,4.23 -14.18,7.24 -3.32,3.02 8.15,9.66 6.04,15.39 -2.11,5.73 -9.05,9.36 -9.05,9.36 l -19.32,-1.81 z"
   id="path422" />
	<path
   class="st12"
   d="m 709.37,1476.39 c 0,0 44.37,-124.65 50.4,-126.76 6.04,-2.11 34.1,9.36 34.41,13.58 0.3,4.23 -45.93,117.82 -45.93,117.82 l -4.47,10.75 -38.63,-5.43 z"
   id="path424" />
	<path
   class="st14"
   d="m 655.65,1491.08 c 0,0 4.23,-69.3 12.07,-80.02 7.85,-10.72 22.94,-15.15 24.75,-18.37 1.81,-3.22 6.04,-47.88 23.54,-47.88 17.5,0 7.85,48.89 9.66,52.51 1.81,3.62 11.46,1.72 12.68,20.62 1.21,18.91 -12.07,76.95 -12.07,76.95 z"
   id="path426" />
	<path
   class="st0"
   d="m 663.47,1423.45 c 0,0 17.99,15.82 34.44,17.48 16.45,1.66 39.51,-6.51 39.51,-6.51 l -1.47,10.66 c 0,0 -20.31,6.27 -38.91,4.46 -18.6,-1.81 -35.54,-15.48 -35.54,-15.48 z"
   id="path428" />
	<path
   class="st12"
   d="m 661.5,1434.05 c 0,0 19.09,13.82 35.54,15.48 16.45,1.66 38.91,-4.46 38.91,-4.46 l -1.74,10.5 c 0,0 -19.32,5.98 -37.92,4.17 -18.6,-1.81 -36.27,-15.35 -36.27,-15.35 z"
   id="path430" />
	<path
   class="st0"
   d="m 573.52,1465.13 c 0,0 19.96,158.54 24.79,171.82 4.83,13.28 49.25,33.8 82.57,32.59 33.32,-1.21 89.46,-26.56 93.08,-36.22 3.62,-9.66 14.1,-178.26 14.1,-178.26 0,0 -51.44,17.7 -91.02,19.51 -39.58,1.82 -123.52,-9.44 -123.52,-9.44 z"
   id="path432" />
</g>
<g
   id="Layer_7"
   transform="translate(0,-618.6)">
	<path
   d="m 1216.2,1100.8 c -15.69,12.68 -25.96,22.94 -23.54,25.96 2.41,3.02 36.22,3.02 50.7,3.02 14.49,0 15.61,3.62 22.29,-4.23 6.68,-7.85 3.67,-24.75 3.67,-24.75 z"
   id="path435" />
	<path
   d="m 1381.38,1100.8 c -7.04,16.9 -13.67,25.35 -6.43,27.16 7.24,1.81 49.5,-21.13 53.12,-27.16 3.62,-6.04 -3.62,-22.94 -7.85,-25.35 -4.23,-2.41 -38.84,25.35 -38.84,25.35 z"
   id="path437" />
	<path
   class="st6"
   d="m 1199.39,896.58 c -8.15,53.12 -6.34,114.28 0,144.06 6.34,29.78 7.55,59.79 11.77,64.3 4.23,4.51 55.73,12.79 64.59,0 -7.16,-33.55 -24.47,-72.07 -23.1,-94.14 1.37,-22.07 0.57,-42.59 7.41,-43.4 6.84,-0.8 21.73,59.15 38.23,75.25 16.5,16.1 73.25,61.8 77.66,61.17 4.41,-0.64 23.74,-7.24 34.2,-13.68 10.46,-6.44 14.08,-10.86 14.89,-20.12 -8.05,-16.1 -33.4,-45.07 -46.68,-63.58 -13.28,-18.51 -41.05,-109.86 -41.05,-109.86 z"
   id="path439" />
	<path
   class="st13"
   d="m 819.02,904.36 c 7.81,-18.49 638.38,178.84 754.91,232.86 12.91,5.98 9.01,8.14 8.05,10.17 -0.89,1.88 3.35,7.3 -9.26,5.32 -124.01,-19.42 -767.94,-214.62 -753.7,-248.35 z"
   id="path441" />
	<path
   class="st11"
   d="m 1101.81,972.23 c 0.6,11.17 -3.92,27.16 -1.81,29.28 2.11,2.11 7.56,-4.11 7.56,-4.11 0,0 -1.52,13.77 2.71,15.88 4.23,2.11 9.96,-11.47 9.96,-11.47 0,0 0.91,15.39 5.73,15.69 4.82,0.3 9.98,-11.1 9.67,-20.79 -0.31,-9.69 -10.57,-35.04 -10.57,-35.04 z"
   id="path443" />
	<path
   class="st11"
   d="m 1275.35,989.59 c -9.66,12.02 -24.95,21.68 -25.35,26.1 -0.4,4.43 5.39,5.51 5.39,5.51 0,0 -26.31,29.1 -22.29,31.92 4.02,2.82 10.06,-2.41 10.06,-2.41 0,0 -6.04,7.65 -4.02,9.66 2.01,2.01 12.47,-4.02 12.47,-4.02 0,0 -3.62,4.83 -1.21,8.05 2.41,3.22 17.3,-6.44 21.73,-10.06 4.43,-3.62 29.72,-39.03 29.72,-39.03 z"
   id="path445" />
	<path
   class="st12"
   d="m 1198.69,722.34 c -70.68,6.9 -127.36,63.48 -138.83,131.34 -11.47,67.86 37.36,119.45 39.57,122.58 2.21,3.13 27.29,-5.23 28.97,-9.66 1.68,-4.43 -10.94,-43.46 -10.87,-66.8 0.07,-23.34 9.66,-45.59 13.92,-50.16 4.26,-4.57 19.55,-12.21 19.55,-12.21 0,0 5.23,33.4 22.53,52.31 17.3,18.91 37.42,41.05 65.19,38.23 27.77,-2.82 73.64,-22.53 73.64,-22.53 0,0 -4.02,24.95 -12.47,39.44 -8.45,14.49 -32.63,47.8 -32.63,47.8 0,0 9.64,21.3 18.15,27.45 8.51,6.15 19.32,4.02 19.32,4.02 0,0 58.75,-33.2 70.82,-71.83 12.07,-38.63 25.35,-68.21 10.86,-117.7 -14.49,-49.49 -30.18,-80.28 -68.21,-98.39 -38.02,-18.12 -94.76,-16.31 -119.51,-13.89 z"
   id="path447" />
	<path
   d="m 1166.7,743.16 c -8.75,-22.33 -7.85,-43.46 1.81,-51.91 9.66,-8.45 22.64,-12.07 37.42,-3.02 14.79,9.05 21.43,17.95 23.54,24.82 2.11,6.87 -9.05,24.98 -9.05,24.98 z"
   id="path449" />
	<path
   class="st11"
   d="m 1176.16,732.6 c 0,0 -11.07,-8.86 -15.49,-1.41 -4.43,7.45 6.64,19.12 18.11,16.91 9.05,10.86 24.75,28.77 37.62,23.34 12.88,-5.43 9.03,-34.41 9.03,-34.41 0,0 15.42,-17.78 8.27,-23.97 -7.15,-6.19 -17.3,9.48 -17.3,9.48 l -1.81,-4.43 c 0,0 -4.02,5.03 -14.49,7.65 -10.46,2.62 -25.15,-1.81 -25.15,-1.81 z"
   id="path451" />
	<path
   class="st12"
   d="m 1563.31,1242.95 c 0,0 62.74,35.01 64.25,30.78 1.51,-4.23 -4.23,-9.36 -4.23,-9.36 0,0 15.69,2.41 18.71,-2.41 3.02,-4.82 -8.02,-14.79 -8.02,-14.79 0,0 23.41,5.13 27.94,-1.51 4.53,-6.64 -4.83,-15.68 -4.83,-15.68 0,0 13.88,-1.22 15.09,-4.84 1.21,-3.62 -3.02,-11.96 -3.02,-11.96 0,0 7.85,0.19 10.56,-4.04 2.72,-4.23 -2.11,-12.76 -2.11,-12.76 0,0 8.14,-0.03 10.26,-4.95 2.12,-4.92 -5.13,-17 -5.13,-17 0,0 14.79,-5.13 17.81,-8.75 3.02,-3.62 -2.72,-14.49 -2.72,-14.49 0,0 9.96,0.82 13.28,-3.81 3.32,-4.64 -2.4,-15.1 -2.4,-15.1 0,0 12.66,-4.02 13.87,-7.04 1.21,-3.02 3.13,-10.8 -12.07,-21.73 -15.2,-10.93 -60.96,-33.5 -60.96,-33.5 l -35.01,77.87 z"
   id="path453" />
	<path
   class="st13"
   d="m 1563.31,1245.66 c -24.26,-7.7 -1.85,-161.77 86.28,-175.65 -30.18,126.66 -86.28,175.65 -86.28,175.65 z"
   id="path455" />
	<path
   class="st12"
   d="m 1567.2,1141.84 c 2.31,-6.74 11.26,-19.35 14.88,-20.86 9.2,10.63 8.51,15.02 5.04,27.71 -4.12,15.09 -25.3,19.56 -25.3,19.56 0,0 1.45,-14.94 5.38,-26.41 z"
   id="path457" />
	<path
   class="st17"
   d="m 1203.97,735.31 c -1.91,-3.18 8.75,-8.15 10.11,-5.58 1.36,2.57 -8.75,7.85 -10.11,5.58 z"
   id="path459" />
	<path
   class="st17"
   d="m 1179.97,741.04 c -0.91,-3.6 10.74,-5.27 11.29,-2.42 0.55,2.85 -10.65,4.98 -11.29,2.42 z"
   id="path461" />
</g>
<g
   id="Layer_8"
   transform="translate(0,-618.6)">
	<path
   class="st14"
   d="m 2238.11,1359.75 c -19.32,21.13 -33.31,29.53 -25.96,38.03 16.9,19.52 44.67,2.41 57.95,0 13.28,-2.41 9.54,-25.35 9.54,-25.35 z"
   id="path464" />
	<path
   class="st14"
   d="m 2282.97,1411.25 c -19.72,13.68 -32.1,22.76 -30.86,25.15 4.7,9.05 24.02,7.44 39.31,5.03 15.29,-2.41 26.24,0.61 26.24,0.61 0,0 6.35,-4.23 6.75,-11.87 0.4,-7.65 0,-16.9 0,-16.9 z"
   id="path466" />
	<path
   class="st18"
   d="m 2239.11,1212.06 c 0,0 -6.42,146.74 -6.43,153.45 -0.01,6.71 28.07,24.66 37.01,24.42 8.94,-0.24 24.95,-9.25 24.95,-9.25 l -15.01,-146.88 z"
   id="path468" />
	<path
   class="st19"
   d="m 2369.09,1205.22 c 0,0 -25.35,97.92 -27.77,112.64 -2.41,14.72 -10.26,87.36 -16.9,95.41 -6.64,8.05 -40.91,9.26 -44.3,2.01 -3.39,-7.25 -21.49,-76.09 -20.89,-102.63 0.6,-26.54 4.43,-70.6 4.43,-70.6 z"
   id="path470" />
	<g
   id="g514">
		<path
   class="st20"
   d="m 1723.42,1388.72 c 0,0 8.66,26.96 31.19,36.22 22.53,9.26 124.03,-15.41 141.09,-30.04 17.06,-14.63 35.17,-64.73 35.17,-64.73 0,0 -2.41,-19.92 -10.86,-36.82 -8.45,-16.9 -37.02,-31.19 -69.42,-47.69 -32.4,-16.49 -45.27,-19.32 -45.27,-19.32 l -134,59.76 z"
   id="path472" />
		<g
   id="g502">
			<path
   class="st20"
   d="m 1735.3,1384.49 c 0,0 36.22,-83.3 41.65,-103.82 5.43,-20.52 6.64,-50.69 6.64,-50.69"
   id="path474" />
			<path
   class="st20"
   d="m 1702.71,1367.59 c 18.71,-25.96 33.77,-54.32 42.54,-71.83 8.77,-17.5 7.56,-50.1 7.56,-50.1"
   id="path476" />
			<path
   class="st20"
   d="m 1833.09,1218.05 c -19.32,75.9 -49.5,149.54 -49.5,149.54"
   id="path478" />
			<path
   class="st20"
   d="m 1723.42,1251.62 c 40.97,36.25 106.04,101.48 106.04,101.48 0,0 28.37,-82.09 33.2,-142.45"
   id="path480" />
			<path
   class="st20"
   d="m 1888.01,1226.35 c -0.6,50.1 -25.35,111.67 -25.35,111.67"
   id="path482" />
			<path
   class="st20"
   d="m 1913.97,1266.19 c -14.49,45.87 -23.54,60.47 -23.54,60.47"
   id="path484" />
			<path
   class="st20"
   d="m 1719,1257.13 c -13.28,44.06 -31.39,75.45 -31.39,75.45"
   id="path486" />
			<path
   class="st20"
   d="m 1745.24,1384.49 c 15.41,32.59 55.85,39.45 55.85,39.45"
   id="path488" />
			<path
   class="st20"
   d="m 1776.35,1377.85 c 19.32,31.99 53.12,40.5 53.12,40.5"
   id="path490" />
			<path
   class="st20"
   d="m 1808.34,1372.33 c 18.71,26.65 54.32,37.04 54.32,37.04"
   id="path492" />
			<g
   id="g496">
				<path
   class="st20"
   d="m 1841.54,1367.59 c 6.64,15.69 46.48,32.05 46.48,32.05 10.66,-24.2 16.57,-52.57 16.57,-52.57"
   id="path494" />
			</g>
			<path
   class="st20"
   d="m 1864.78,1353.11 c 9.32,18.17 39.81,31.39 39.81,31.39"
   id="path498" />
			<path
   class="st20"
   d="m 1895.7,1347.07 c 15.85,12.68 20.9,16.41 20.9,16.41"
   id="path500" />
		</g>
		<path
   class="st20"
   d="m 1765.73,1244.01 c 34.76,17.96 118.95,82.65 118.95,82.65"
   id="path504" />
		<path
   class="st20"
   d="m 1671.32,1286.11 c 33.8,9.8 101.85,81.49 101.85,81.49"
   id="path506" />
		<path
   class="st20"
   d="m 1754.62,1424.94 c 20.03,-10.7 39.87,-38.79 39.87,-38.79"
   id="path508" />
		<path
   class="st20"
   d="m 1808.34,1420.07 c 22.74,-18.07 27.16,-48.18 27.16,-48.18"
   id="path510" />
		<path
   class="st20"
   d="m 1855.98,1407.01 c 12.92,-22.72 19.36,-47.26 19.36,-47.26"
   id="path512" />
	</g>
	<path
   class="st6"
   d="m 2263.25,1161.36 c -12.07,-23.34 -346.87,96.58 -346.87,96.58 0,0 -24.14,-46.68 -43.46,-52.72 -19.32,-6.04 -188.33,44.67 -205.23,73.64 -16.9,28.97 32.58,107.04 55.73,115.09 23.15,8.05 217.91,-37.02 222.74,-62.78 4.83,-25.75 -14.49,-46.68 -14.49,-46.68 0,0 343.65,-99.79 331.58,-123.13 z m -349.28,146.14 c -9.66,13.21 -161.77,69.55 -182.69,62.3 -20.93,-7.24 -55.53,-60.36 -53.12,-78.07 1.86,-13.63 160.16,-78.07 183.5,-69.21 23.34,8.86 61.97,71.77 52.31,84.98 z"
   id="path516" />
	<path
   class="st21"
   d="m 2153,1181.08 c 10.86,18.91 25.75,28.97 31.39,28.97 5.63,0 9.21,-2.82 8.02,-10.06 -1.18,-7.24 4.16,2.87 14.11,-3.33 9.95,-6.2 3.22,-10.76 3.22,-10.76 0,0 12.73,-6.22 8.05,-12.18 -4.68,-5.95 -35.81,-11.56 -35.81,-11.56 z"
   id="path518" />
	<path
   class="st13"
   d="m 2149.38,1185.39 c 7.12,11.76 42.25,-18.19 42.25,-18.19 0,0 -3.62,-32.44 0,-43.68 3.62,-11.24 10.86,-30.56 10.86,-30.56 0,0 -10.26,47.08 0,60.96 10.26,13.88 30.19,38.41 30.19,38.41 l 68.18,-8.93 68.22,-67.51 c 0,0 30.18,-18.11 17.5,-41.05 -12.68,-22.94 -32.59,-41.65 -54.93,-56.14 -22.34,-14.49 -71.83,-41.65 -108.05,-21.73 -36.22,19.92 -79.07,50.1 -85.11,97.78 -6.01,47.7 5.46,81.66 10.89,90.64 z"
   id="path520" />
	<path
   class="st21"
   d="m 2140.12,1237.82 c 0,0 -7.24,0.4 -19.72,-2.41 -12.47,-2.82 -24.95,-14.08 -24.14,-16.9 0.8,-2.82 18.91,0 18.91,0 0,0 -12.88,-6.04 -8.05,-11.67 4.83,-5.63 20.39,3.22 20.39,3.22 0,0 -10.73,-6.44 -3.89,-10.86 6.84,-4.43 19.77,8.6 33.4,6.04 13.63,-2.57 10.46,4.83 10.46,4.83 z"
   id="path522" />
	<path
   class="st13"
   d="m 2387.64,1076.94 c 5.99,17.62 14.93,69.08 0,105.32 -14.93,36.24 -46.72,74.47 -101.05,84.53 -54.32,10.06 -144.62,-13.21 -149.79,-21.33 -5.17,-8.12 17.11,-35.41 28.73,-40.24 11.61,-4.83 64.73,-14.08 64.73,-14.08 0,0 -19.26,-25.97 -22.91,-30.79 -3.66,-4.82 180.29,-83.41 180.29,-83.41 z"
   id="path524" />
	<path
   class="st21"
   d="m 2252.79,963.38 c -4.82,26.72 4.8,46.68 6.42,51.51 1.62,4.83 6.45,40.24 24.16,37.02 17.71,-3.22 20.93,-33.8 20.93,-33.8 0,0 26.56,-16.1 23.34,-28.17 -3.22,-12.07 -25.75,0 -25.75,0 0,0 -14.49,-6.44 -17.71,-16.9 -3.22,-10.46 -8.85,-14.32 -8.85,-14.32 0,0 -4.84,3.06 -12.08,6.28 -7.24,3.21 -10.46,-1.62 -10.46,-1.62 z"
   id="path526" />
	<path
   class="st6"
   d="m 2327.91,931.99 41.18,76.46 c 0,0 31.86,-16.37 43.09,-42.79 11.23,-26.42 10.43,-57.81 10.43,-57.81 0,0 -62.78,-16.9 -77.26,-8.05 -14.49,8.85 -24.14,25.75 -24.14,25.75 z"
   id="path528" />
	<path
   class="st22"
   d="m 2314.36,926.76 c 3.22,-4.83 14.6,-6.4 18.51,-3.22 10.86,8.85 -2.01,25.35 -2.01,25.35 z"
   id="path530" />
	<path
   class="st0"
   d="m 2293.32,985.71 c 0,1.67 -2.7,3.02 -6.04,3.02 -3.34,0 -6.04,-1.35 -6.04,-3.02 0,-1.67 2.7,-3.02 6.04,-3.02 3.34,0 6.04,1.35 6.04,3.02 z"
   id="path532" />
	<path
   class="st6"
   d="m 2251.46,965.79 c 1.34,-14.08 24.28,-41.45 43.59,-40.24 19.32,1.21 26.89,3.57 30.75,9.83 3.86,6.26 8.28,16.72 7.28,25.58 -1.01,8.85 -5.76,34.47 -5.76,34.47 0,0 2.28,-5.15 -1.52,-8.78 -5.3,-5.06 -24.16,4.6 -24.16,4.6 0,0 -8.6,-4.12 -12.83,-9.96 -4.23,-5.83 -14.18,-22.57 -14.18,-22.57 0,0 -6.29,5.11 -11.37,7.03 -5.08,1.92 -11.8,0.04 -11.8,0.04 z"
   id="path534" />
	<path
   class="st0"
   d="m 2260.36,979.92 c -0.59,1.56 -3.03,2.08 -5.45,1.17 -2.42,-0.91 -3.91,-2.91 -3.32,-4.47 0.59,-1.56 3.03,-2.08 5.45,-1.17 2.42,0.91 3.9,2.91 3.32,4.47 z"
   id="path536" />
</g>
<g
   id="Layer_12"
   transform="translate(0,-618.6)">
	<path
   class="st23"
   d="m 1193.56,724.45 c 3.69,15.79 5.39,38.52 13.96,26.26"
   id="path539" />
	<line
   class="st23"
   x1="1223.74"
   y1="726.56"
   x2="1228.66"
   y2="720.84998"
   id="line541" />
	<line
   class="st23"
   x1="1168.51"
   y1="735.85999"
   x2="1173.04"
   y2="739.67999"
   id="line543" />
	<path
   class="st23"
   d="m 1201.71,760.97 c 3.22,4.02 12.93,6.24 12.5,-4.43"
   id="path545" />
	<path
   class="st23"
   d="m 1151.01,837.42 c -0.8,-10.66 7.24,-34.2 7.24,-34.2"
   id="path547" />
	<path
   class="st23"
   d="m 1281.39,788.13 c 23.84,15.09 48.89,71.83 28.11,118.51"
   id="path549" />
	<path
   class="st23"
   d="m 1239.14,946.73 c 5.28,9.21 14.13,17.18 18.86,19.92 4.73,2.74 5.55,3.02 8.05,8.73"
   id="path551" />
	<path
   class="st23"
   d="m 1234,1053.6 c 3.81,0.05 23.41,-15.17 27.85,-21.41"
   id="path553" />
	<path
   class="st23"
   d="m 1242.95,1060.31 c 5.64,0.45 24.31,-20.67 24.31,-20.67"
   id="path555" />
	<path
   class="st23"
   d="m 466.52,1344.05 c 4.23,15.69 0,49.73 0,49.73"
   id="path557" />
	<path
   class="st23"
   d="m 531.77,1195.47 c -1.54,-4.66 7.68,-17.11 9.34,-0.22"
   id="path559" />
	<path
   class="st23"
   d="m 558.33,1232.32 c -6.56,8.55 -0.46,13.51 -0.46,13.51"
   id="path561" />
	<line
   class="st23"
   x1="762.09003"
   y1="1361.88"
   x2="766.54999"
   y2="1363.47"
   id="line563" />
	<line
   class="st23"
   x1="762.09003"
   y1="1372.47"
   x2="767.82001"
   y2="1374.6801"
   id="line565" />
	<line
   class="st23"
   x1="778.73999"
   y1="1368.85"
   x2="782.90997"
   y2="1370.38"
   id="line567" />
	<line
   class="st23"
   x1="773.90002"
   y1="1382.13"
   x2="777.13"
   y2="1383.34"
   id="line569" />
	<line
   class="st23"
   x1="755.45001"
   y1="1383.34"
   x2="759.96997"
   y2="1385.45"
   id="line571" />
	<line
   class="st23"
   x1="759.96997"
   y1="1399.33"
   x2="765.53998"
   y2="1402.52"
   id="line573" />
	<line
   class="st23"
   x1="773.90002"
   y1="1393.3"
   x2="777.13"
   y2="1394.67"
   id="line575" />
	<line
   class="st23"
   x1="743.67999"
   y1="1393.3"
   x2="748.28998"
   y2="1394.67"
   id="line577" />
	<line
   class="st23"
   x1="740.96002"
   y1="1407.9399"
   x2="743.67999"
   y2="1408.77"
   id="line579" />
	<line
   class="st23"
   x1="762.76001"
   y1="1413.8199"
   x2="767.82001"
   y2="1416.24"
   id="line581" />
	<line
   class="st23"
   x1="740.96002"
   y1="1425.4301"
   x2="745.97998"
   y2="1427.1"
   id="line583" />
	<line
   class="st23"
   x1="755.45001"
   y1="1418.96"
   x2="759.07001"
   y2="1420.76"
   id="line585" />
	<line
   class="st23"
   x1="740.96002"
   y1="1443.7"
   x2="745.97998"
   y2="1445.21"
   id="line587" />
	<line
   class="st23"
   x1="752.46002"
   y1="1432.98"
   x2="756.21002"
   y2="1434.04"
   id="line589" />
	<line
   class="st23"
   x1="743.46997"
   y1="1458.62"
   x2="748.28998"
   y2="1460.3"
   id="line591" />
	<path
   class="st23"
   d="m 1026.66,1215.87 c 22.86,-4.97 52.92,-24.94 74.45,-24.73 21.53,0.2 32.29,14.16 43.46,12.37 11.17,-1.79 33.27,-14.81 45.07,-12.4 11.8,2.4 42.29,14.78 54.95,15.86 12.66,1.08 34.34,0.38 34.34,0.38"
   id="path593" />
	<line
   class="st23"
   x1="1657.64"
   y1="1186.71"
   x2="1677.66"
   y2="1196.39"
   id="line595" />
	<line
   class="st23"
   x1="1657.64"
   y1="1163.37"
   x2="1682.79"
   y2="1174.4399"
   id="line597" />
	<line
   class="st23"
   x1="1674.14"
   y1="1150.5"
   x2="1686.08"
   y2="1156.88"
   id="line599" />
	<line
   class="st23"
   x1="1643.37"
   y1="1093.84"
   x2="1708.76"
   y2="1132.28"
   id="line601" />
	<line
   class="st23"
   x1="1591.64"
   y1="1247.48"
   x2="1623.33"
   y2="1264.38"
   id="line603" />
	<line
   class="st23"
   x1="1634.03"
   y1="1218.05"
   x2="1657.13"
   y2="1229.98"
   id="line605" />
	<line
   class="st23"
   x1="1991.23"
   y1="1215.87"
   x2="1993.72"
   y2="1147.39"
   id="line607" />
	<path
   class="st23"
   d="m 1963.91,1398.11 c 12.03,-17.84 30.28,-21.37 47.72,-11.95 17.44,9.41 31.12,-4.27 43.19,-5.48 12.07,-1.21 36.22,15.31 36.22,15.31"
   id="path609" />
	<path
   class="st23"
   d="m 1142.8,1399.64 c 21.89,-32.25 120.08,-34.97 142.62,-13.49 22.53,21.48 32.96,-19.04 51.51,-12.79 18.55,6.25 26.56,16.19 39.44,15.98 12.88,-0.21 31.39,-5.42 39.44,0"
   id="path611" />
	<path
   class="st23"
   d="m 1554.16,1432.83 c 19.37,-9.1 26.96,-19.14 47.71,-12.11 20.75,7.03 19.14,10.27 36.44,6.24 17.3,-4.04 23.54,-2.72 30.88,-1.36"
   id="path613" />
	<path
   class="st23"
   d="m 2222.61,1196.67 c 32.78,-7.31 87.86,-0.34 105.3,-87.64"
   id="path615" />
	<path
   class="st23"
   d="m 2274.05,959.9 c -7.24,22.43 -13.6,41.27 -3.95,45.51"
   id="path617" />
	<path
   class="st23"
   d="m 2311.55,992.67 c 3.62,-3.13 11.99,-2.88 9.66,5.72"
   id="path619" />
	<path
   class="st23"
   d="m 2265.95,1012.47 c 4.55,4.43 9.95,4.02 15.3,0"
   id="path621" />
	<path
   class="st23"
   d="m 2259.86,1017.42 c 4.7,13.87 20.7,15.78 34.98,6.22"
   id="path623" />
	<path
   class="st23"
   d="m 2252.86,1437.57 c 13.42,9.1 40.18,3.93 47.42,3 7.24,-0.94 19.15,0 19.15,0"
   id="path625" />
	<path
   class="st23"
   d="m 2210.16,1391.34 c 1.99,6.44 11.19,17.01 22.53,15.67 11.34,-1.34 18.26,-5.01 26.53,-6.82 8.27,-1.81 15.07,-4.18 15.07,-4.18"
   id="path627" />
	<path
   class="st23"
   d="m 2292.01,1441.73 c 4.38,-7.1 20.68,-19.8 32.58,-17.8"
   id="path629" />
	<path
   class="st23"
   d="m 2253.74,1401.66 c 2.47,-6.3 9.82,-12.56 9.82,-12.56"
   id="path631" />
	<line
   class="st23"
   x1="2220.2"
   y1="1381.88"
   x2="2227.24"
   y2="1389.1"
   id="line633" />
	<line
   class="st23"
   x1="2227.24"
   y1="1376.45"
   x2="2233.8799"
   y2="1383.38"
   id="line635" />
	<line
   class="st23"
   x1="2230.5601"
   y1="1372.42"
   x2="2238.51"
   y2="1379.91"
   id="line637" />
	<line
   class="st23"
   x1="2270.1001"
   y1="1423.72"
   x2="2275.3301"
   y2="1427.29"
   id="line639" />
	<line
   class="st23"
   x1="2275.3301"
   y1="1420.0699"
   x2="2280.1201"
   y2="1422.92"
   id="line641" />
	<line
   class="st23"
   x1="2263.6599"
   y1="1427.29"
   x2="2267.6799"
   y2="1430.17"
   id="line643" />
	<path
   class="st23"
   d="m 743.44,1283.69 c 9.18,-9.66 12.4,-14.89 45.4,-7.04 33,7.85 58.75,6.11 76.46,7.04 17.71,0.94 79.45,-12.88 105.32,-16.1 25.87,-3.22 36.33,4.43 50.82,9.05"
   id="path645" />
	<path
   class="st23"
   d="m 726.61,1398.41 c 5.35,3.35 9.3,8.47 10.8,12.9 1.5,4.43 0.89,16.96 -0.55,26.31 -1.44,9.34 -5.09,31.08 -5.09,31.08"
   id="path647" />
	<path
   d="m 573.25,1211.4 c 0.77,0.95 2.55,0.8 3.97,-0.35 1.42,-1.15 1.94,-2.86 1.17,-3.81 -0.77,-0.95 -2.55,-0.8 -3.97,0.35 -1.42,1.15 -1.95,2.85 -1.17,3.81 z"
   id="path649" />
	<path
   d="m 1187.14,739.2 c 0.37,1.16 -0.03,2.32 -0.87,2.58 -0.85,0.27 -1.83,-0.46 -2.2,-1.61 -0.37,-1.16 0.03,-2.32 0.88,-2.58 0.85,-0.26 1.82,0.45 2.19,1.61 z"
   id="path651" />
	<path
   d="m 1210.51,731.96 c 0.37,1.16 -0.03,2.32 -0.87,2.58 -0.84,0.26 -1.83,-0.46 -2.2,-1.61 -0.37,-1.16 0.03,-2.32 0.87,-2.58 0.86,-0.27 1.84,0.45 2.2,1.61 z"
   id="path653" />
	<path
   d="m 2256.61,978.5 c -0.53,1.72 -1.5,2.94 -2.16,2.74 -0.66,-0.2 -0.77,-1.76 -0.24,-3.48 0.53,-1.72 1.5,-2.94 2.16,-2.74 0.66,0.2 0.77,1.76 0.24,3.48 z"
   id="path655" />
	<path
   d="m 2288.51,985.42 c 0.41,1.75 0.19,3.29 -0.48,3.45 -0.68,0.16 -1.55,-1.13 -1.96,-2.88 -0.41,-1.75 -0.19,-3.29 0.48,-3.45 0.67,-0.16 1.55,1.13 1.96,2.88 z"
   id="path657" />
	<path
   class="st23"
   d="m 1425.05,1275.28 c 35.01,-10.91 42.25,-21.77 65.19,-10.91 22.94,10.86 38.84,33.2 52.01,30.48 13.17,-2.72 29.05,-22.38 39.83,-17.38 10.77,5 29.61,23.51 29.61,23.51"
   id="path659" />
</g>
</svg>
